<svg id="Layer_1" enable-background="new 0 0 512 512" height="512" viewBox="0 0 512 512" width="512" xmlns="http://www.w3.org/2000/svg"><path d="m405.5 256c0 82.435-67.065 149.5-149.5 149.5s-149.5-67.065-149.5-149.5c0-58.926 34.78-112.531 88.607-136.566 6.051-2.701 13.148.013 15.85 6.065s-.013 13.148-6.064 15.85c-45.192 20.178-74.393 65.182-74.393 114.651 0 69.201 56.299 125.5 125.5 125.5s125.5-56.299 125.5-125.5c0-49.47-29.201-94.473-74.393-114.651-6.052-2.702-8.767-9.798-6.064-15.85 2.702-6.05 9.797-8.766 15.85-6.065 53.827 24.034 88.607 77.639 88.607 136.566zm-149.5-23.064c6.627 0 12-5.373 12-12v-102.436c0-6.627-5.373-12-12-12s-12 5.373-12 12v102.436c0 6.627 5.373 12 12 12zm256 23.064c0 141.159-114.841 256-256 256s-256-114.842-256-256 114.841-256 256-256 256 114.841 256 256zm-24 0c0-127.925-104.075-232-232-232s-232 104.075-232 232 104.075 232 232 232 232-104.075 232-232z"/></svg>