<svg id="Layer_1" height="512" viewBox="0 0 512 512" width="512" xmlns="http://www.w3.org/2000/svg" data-name="Layer 1"><circle cx="256" cy="256" fill="#f44336" r="256"/><path d="m275.631 229.351v-123.727a19.628 19.628 0 0 0 -39.255 0v123.727a19.628 19.628 0 0 0 39.255 0zm150.369 26.649a170 170 0 1 1 -256.023-146.644 19.86 19.86 0 0 1 29.91 17.121c0 7.71-3.014 13.922-9.753 17.907a129.854 129.854 0 0 0 -63.716 111.616c0 71.455 58.136 129.586 129.582 129.586s129.592-58.131 129.592-129.586a129.864 129.864 0 0 0 -63.716-111.616 19.411 19.411 0 0 1 -9.756-17.084c0-7.807 3.114-14.111 9.994-18.055a19.422 19.422 0 0 1 19.915.113 170.3 170.3 0 0 1 83.971 146.642z" fill="#fff" fill-rule="evenodd"/></svg>