<?xml version="1.0" encoding="iso-8859-1"?>
<!-- Generator: Adobe Illustrator 19.0.0, SVG Export Plug-In . SVG Version: 6.00 Build 0)  -->
<svg version="1.1" id="Capa_1" xmlns="http://www.w3.org/2000/svg" xmlns:xlink="http://www.w3.org/1999/xlink" x="0px" y="0px"
	 viewBox="0 0 512.001 512.001" style="enable-background:new 0 0 512.001 512.001;" xml:space="preserve">
<g>
	<g>
		<path d="M317.013,192.239c-10.3-25.751-24.852-39.933-40.973-39.933c-16.121,0-30.673,14.182-40.974,39.933
			c-9.43,23.575-14.624,54.76-14.624,87.809s5.193,64.234,14.624,87.81c10.301,25.751,24.852,39.933,40.974,39.933
			s30.673-14.182,40.973-39.933c9.43-23.576,14.624-54.76,14.624-87.81S326.444,215.814,317.013,192.239z M276.04,392.791
			c-19.202,0-40.597-46.302-40.597-112.742s21.395-112.742,40.597-112.742c19.202,0,40.597,46.301,40.597,112.742
			S295.242,392.791,276.04,392.791z"/>
	</g>
</g>
<g>
	<g>
		<path d="M474.3,107.046c-1.423-1.792-3.585-2.836-5.874-2.836H387.83c-23.1-35.166-52.684-55.972-88.403-62.15
			c2.628-4.219,4.153-9.193,4.153-14.519C303.58,12.354,291.225,0,276.04,0c-15.186,0-27.541,12.354-27.541,27.541
			c0,5.326,1.524,10.3,4.153,14.519c-41.976,7.26-75.483,34.714-99.948,81.942c-3.734-1.184-7.573-2.099-11.457-2.727
			c-43.353-7.014-84.328,22.552-91.342,65.905l-12.801,79.133c-7.005,43.307,22.491,84.239,65.769,91.316
			c-1.658,28.379-2.541,58.779-2.658,91.276h-0.531c-8.556,0-15.516,6.96-15.516,15.516v32.064c0,8.556,6.96,15.516,15.516,15.516
			h352.709c8.556,0,15.516-6.96,15.516-15.516v-32.064c0-8.556-6.96-15.516-15.516-15.516h-0.531
			c-0.254-70.529-4.113-131.195-11.681-182.718l35.55-152.778C476.25,111.18,475.723,108.837,474.3,107.046z M276.04,15
			c6.915,0,12.54,5.625,12.54,12.541c0,6.915-5.625,12.54-12.54,12.54c-6.915,0-12.541-5.626-12.541-12.54
			C263.499,20.626,269.124,15,276.04,15z M51.912,268.708l12.801-79.133c5.693-35.188,38.95-59.188,74.139-53.493
			c2.454,0.397,4.88,0.95,7.264,1.621c-0.461,1.03-0.929,2.043-1.382,3.089c-1.799,4.15-3.541,8.426-5.229,12.823
			c-1.118-0.264-2.243-0.503-3.379-0.687c-12.55-2.029-25.132,0.948-35.438,8.384c-10.307,7.437-17.101,18.441-19.13,30.987
			l-12.801,79.134c-4.027,24.896,12.144,48.47,36.406,53.98c-0.475,5.625-0.915,11.338-1.321,17.139
			C69.514,336.139,46.306,303.369,51.912,268.708z M134.377,167.857c-13.03,38.61-22.273,85.845-27.834,142.424
			c-15.519-4.55-25.626-20.083-22.978-36.453l12.801-79.133c1.39-8.591,6.042-16.126,13.099-21.218s15.674-7.134,24.266-5.741
			C133.947,167.771,134.162,167.818,134.377,167.857z M452.395,463.903c0.285,0,0.516,0.231,0.516,0.516v32.064
			c0,0.285-0.231,0.516-0.516,0.516H99.685c-0.285,0-0.516-0.231-0.516-0.516v-32.064c0-0.285,0.231-0.516,0.516-0.516h24.052
			c4.142,0,7.5-3.358,7.5-7.5c0-4.142-3.358-7.5-7.5-7.5h-8.511c0.518-135.423,15.062-237.069,43.271-302.146
			c4.344-10.021,9.003-19.192,13.974-27.547H324.14c4.142,0,7.5-3.358,7.5-7.5c0-4.142-3.358-7.5-7.5-7.5H182.4
			c24.309-32.963,55.227-49.129,93.64-49.129c38.412,0,69.33,16.166,93.639,49.129h-13.478c-4.142,0-7.5,3.358-7.5,7.5
			c0,4.142,3.358,7.5,7.5,7.5h23.407c4.971,8.356,9.63,17.526,13.974,27.547c28.209,65.078,42.753,166.723,43.271,302.146H155.797
			c-4.142,0-7.5,3.358-7.5,7.5c0,4.142,3.358,7.5,7.5,7.5H452.395z M433.609,228.25c-6.814-33.688-15.555-62.753-26.264-87.459
			c-3.308-7.631-6.824-14.811-10.527-21.582h62.163L433.609,228.25z"/>
	</g>
</g>
<g>
	<g>
		<path d="M292.072,272.548h-32.064c-4.142,0-7.5,3.358-7.5,7.5c0,4.142,3.358,7.5,7.5,7.5h32.064c4.142,0,7.5-3.358,7.5-7.5
			C299.572,275.906,296.214,272.548,292.072,272.548z"/>
	</g>
</g>
<g>
	<g>
		<path d="M284.056,224.452h-16.032c-4.142,0-7.5,3.358-7.5,7.5c0,4.142,3.358,7.5,7.5,7.5h16.032c4.142,0,7.5-3.358,7.5-7.5
			C291.556,227.81,288.198,224.452,284.056,224.452z"/>
	</g>
</g>
<g>
	<g>
		<path d="M284.056,320.645h-16.032c-4.142,0-7.5,3.358-7.5,7.5c0,4.142,3.358,7.5,7.5,7.5h16.032c4.142,0,7.5-3.358,7.5-7.5
			C291.556,324.003,288.198,320.645,284.056,320.645z"/>
	</g>
</g>
<g>
</g>
<g>
</g>
<g>
</g>
<g>
</g>
<g>
</g>
<g>
</g>
<g>
</g>
<g>
</g>
<g>
</g>
<g>
</g>
<g>
</g>
<g>
</g>
<g>
</g>
<g>
</g>
<g>
</g>
</svg>
