<?xml version="1.0" encoding="iso-8859-1"?>
<!-- Generator: Adobe Illustrator 19.0.0, SVG Export Plug-In . SVG Version: 6.00 Build 0)  -->
<svg version="1.1" id="Capa_1" xmlns="http://www.w3.org/2000/svg" xmlns:xlink="http://www.w3.org/1999/xlink" x="0px" y="0px"
	 viewBox="0 0 512 512" style="enable-background:new 0 0 512 512;" xml:space="preserve">
<path style="fill:#5D5360;" d="M113.872,354.371c-3.847,0-7.718-0.29-11.589-0.887c-19.871-3.048-37.363-13.653-49.258-29.863
	s-16.766-36.081-13.71-55.96l12.347-80.435c6.298-41.024,44.815-69.363,85.815-62.976c41.024,6.298,69.274,44.798,62.984,85.815
	l-12.355,80.452c-3.048,19.871-13.661,37.363-29.871,49.258C145.186,349.355,129.759,354.371,113.872,354.371z M126.041,156.403
	c-20.484,0-38.524,14.976-41.734,35.839L71.96,272.677c-1.71,11.153,1.024,22.306,7.694,31.403
	c6.677,9.097,16.492,15.048,27.637,16.758c0.008,0,0.008,0,0.008,0c11.153,1.702,22.306-1.024,31.395-7.694
	c9.097-6.677,15.048-16.492,16.766-27.645l12.355-80.444c3.532-23.016-12.331-44.621-35.347-48.161
	C130.307,156.565,128.162,156.403,126.041,156.403z"/>
<path style="fill:#4B3F4E;" d="M138.621,124.485c-1.584,3.358-3.111,6.848-4.604,10.419c-1.331,3.185-4.488,5.064-7.94,5.058
	c-28.547-0.048-53.627,20.69-58.092,49.77l-12.351,80.439c-3.986,25.962,9.692,50.53,32.055,61.57
	c2.902,1.432,4.508,4.623,4.239,7.848c-0.307,3.689-0.611,7.388-0.866,11.202c3.647,1.143,7.372,2.101,11.221,2.692
	c3.871,0.597,7.742,0.887,11.589,0.887c18.964,0,37.274-7.148,51.664-20.675c12.593-11.838,20.242-28.02,22.866-45.103
	l12.059-78.529C206.691,169.438,179.014,131.327,138.621,124.485z M79.654,304.081c-6.669-9.097-9.403-20.25-7.694-31.403
	l12.347-80.436c3.21-20.863,21.25-35.839,41.734-35.839c2.121,0,4.266,0.161,6.427,0.492c23.016,3.54,38.879,25.145,35.347,48.161
	L155.46,285.5c-1.718,11.153-7.669,20.968-16.766,27.645c-9.089,6.669-20.242,9.395-31.395,7.694c0,0,0,0-0.008,0
	C96.146,319.129,86.331,313.177,79.654,304.081z"/>
<path style="fill:#E6646E;" d="M360.081,107.355l66.065,214.71L473.36,117.47c1.194-5.175-2.736-10.115-8.047-10.115H360.081z"/>
<path style="fill:#FF8087;" d="M277.501,41.29c-110.586,0-173.419,123.871-173.419,421.161H450.92
	C450.92,165.161,388.087,41.29,277.501,41.29z"/>
<path style="fill:#E6646E;" d="M195.8,378.085c5.226-192.368,33.574-298.602,80.976-336.769
	c-110.131,0.547-172.695,124.503-172.695,421.136H450.92c0-5.607-0.067-11.032-0.111-16.516H261.858
	C224.695,445.935,194.791,415.235,195.8,378.085z"/>
<ellipse style="fill:#C9C6CA;" cx="277.5" cy="280.77" rx="49.548" ry="123.87"/>
<ellipse style="fill:#DBD9DC;" cx="277.5" cy="280.77" rx="33.03" ry="107.36"/>
<g>
	<path style="fill:#5D5360;" d="M294.017,289.032h-33.032c-4.565,0-8.258-3.694-8.258-8.258s3.694-8.258,8.258-8.258h33.032
		c4.565,0,8.258,3.694,8.258,8.258S298.581,289.032,294.017,289.032z"/>
	<path style="fill:#5D5360;" d="M285.759,239.484h-16.516c-4.565,0-8.258-3.694-8.258-8.258c0-4.565,3.694-8.258,8.258-8.258h16.516
		c4.565,0,8.258,3.694,8.258,8.258S290.323,239.484,285.759,239.484z"/>
	<path style="fill:#5D5360;" d="M285.759,338.581h-16.516c-4.565,0-8.258-3.694-8.258-8.258s3.694-8.258,8.258-8.258h16.516
		c4.565,0,8.258,3.694,8.258,8.258S290.323,338.581,285.759,338.581z"/>
</g>
<g>
	<circle style="fill:#C9C6CA;" cx="277.5" cy="20.645" r="20.645"/>
	<path style="fill:#C9C6CA;" d="M459.178,512H95.823c-4.561,0-8.258-3.697-8.258-8.258V470.71c0-4.561,3.697-8.258,8.258-8.258
		h363.355c4.561,0,8.258,3.697,8.258,8.258v33.032C467.436,508.303,463.739,512,459.178,512z"/>
</g>
<path style="fill:#B7B2B8;" d="M203.178,495.484c-9.122,0-16.516-7.395-16.516-16.516v-16.516H95.823
	c-4.561,0-8.258,3.697-8.258,8.258v33.032c0,4.561,3.697,8.258,8.258,8.258h363.355c4.561,0,8.258-3.697,8.258-8.258v-8.258
	L203.178,495.484L203.178,495.484z"/>
<path style="fill:#E6646E;" d="M166.536,107.355h221.929c-3.718-5.941-7.611-11.409-11.64-16.516H178.177
	C174.147,95.946,170.253,101.414,166.536,107.355z"/>
<path style="fill:#DC4655;" d="M178.191,90.839c-4.033,5.109-7.933,10.572-11.653,16.516h67.601
	c2.217-5.823,4.519-11.338,6.913-16.516H178.191z"/>
<path style="fill:#B7B2B8;" d="M288.856,29.935c-11.402,0-20.645-9.243-20.645-20.645c0-2.747,0.561-5.358,1.535-7.755
	c-7.553,3.069-12.89,10.455-12.89,19.11c0,11.402,9.243,20.645,20.645,20.645c8.655,0,16.041-5.337,19.11-12.89
	C294.213,29.374,291.603,29.935,288.856,29.935z"/>
<g>
</g>
<g>
</g>
<g>
</g>
<g>
</g>
<g>
</g>
<g>
</g>
<g>
</g>
<g>
</g>
<g>
</g>
<g>
</g>
<g>
</g>
<g>
</g>
<g>
</g>
<g>
</g>
<g>
</g>
</svg>
